<mxfile host="app.diagrams.net" modified="2024-02-02T02:44:43.260Z" agent="Mozilla/5.0 (Windows NT 10.0; Win64; x64) AppleWebKit/537.36 (KHTML, like Gecko) Chrome/120.0.0.0 Safari/537.36" version="23.0.2" etag="Vc-ObRg23DDn9dxTP4Ua" type="github">
  <diagram name="Page-1" id="rUxwynTAMn5LqvVh1tP2">
    <mxGraphModel>
      <root>
        <mxCell id="0" />
        <mxCell id="1" parent="0" />
      </root>
    </mxGraphModel>
  </diagram>
</mxfile>
